<?xml version="1.0" encoding="UTF-8"?>
<svg width="350px" height="703px" viewBox="0 0 350 703" version="1.1" xmlns="http://www.w3.org/2000/svg" xmlns:xlink="http://www.w3.org/1999/xlink">
    <!-- Generator: Sketch 53 (72520) - https://sketchapp.com -->
    <title>iPHONE XS</title>
    <desc>Created with Sketch.</desc>
    <defs>
        <path d="M59.6152108,0.000622746134 L282.156019,0.000622746134 C323.026758,0.000622746134 341.769981,19.4833664 341.769981,59.9377231 L341.769981,639.23929 C341.769981,678.320069 321.694378,699.17639 282.156019,699.17639 L59.6152108,699.17639 C18.7444716,699.17639 0.00124880479,679.693646 0.00124880479,639.23929 L0.00124880479,59.9377231 C0.00124880479,19.4833664 18.7444716,0.000622746134 59.6152108,0.000622746134 Z M255.009172,25.9277327 C255.009172,33.7277738 249.281138,43.2648058 236.101259,43.2648058 L104.826326,43.2648058 C91.6464471,43.2648058 85.9184137,33.7277738 85.9184137,26.1986245 C85.9184137,22.4454231 85.9184127,18.8845468 79.7058207,18.8845468 L53.5048499,18.8845468 C31.6081286,18.8845468 18.3901557,32.140627 18.3901557,54.1004764 L18.3901557,643.019211 C18.3901557,664.97906 31.6081286,678.23514 53.5048499,678.23514 L287.152622,678.23514 C309.049344,678.23514 322.267317,664.97906 322.267317,643.019211 L322.267317,54.1004764 C322.267317,32.140627 309.049344,18.8845468 287.152622,18.8845468 L261.221771,18.8845468 C255.009172,18.8845468 255.009172,22.4454243 255.009172,25.9277327 Z" id="path-1"></path>
        <filter x="-0.8%" y="-0.4%" width="101.6%" height="100.8%" filterUnits="objectBoundingBox" id="filter-2">
            <feMorphology radius="1" operator="erode" in="SourceAlpha" result="shadowSpreadInner1"></feMorphology>
            <feGaussianBlur stdDeviation="1" in="shadowSpreadInner1" result="shadowBlurInner1"></feGaussianBlur>
            <feOffset dx="0" dy="0" in="shadowBlurInner1" result="shadowOffsetInner1"></feOffset>
            <feComposite in="shadowOffsetInner1" in2="SourceAlpha" operator="arithmetic" k2="-1" k3="1" result="shadowInnerInner1"></feComposite>
            <feColorMatrix values="0 0 0 0 0   0 0 0 0 0   0 0 0 0 0  0 0 0 0.5 0" type="matrix" in="shadowInnerInner1"></feColorMatrix>
        </filter>
        <linearGradient x1="50%" y1="0%" x2="50%" y2="100%" id="linearGradient-3">
            <stop stop-color="#5F5F5F" offset="0%"></stop>
            <stop stop-color="#222222" offset="1.01238%"></stop>
            <stop stop-color="#252525" offset="100%"></stop>
        </linearGradient>
        <linearGradient x1="50%" y1="0%" x2="50%" y2="100%" id="linearGradient-4">
            <stop stop-color="#6D6D6D" offset="0%"></stop>
            <stop stop-color="#000000" offset="1.61167607%"></stop>
            <stop stop-color="#000000" offset="98.4696655%"></stop>
            <stop stop-color="#5C5C5C" offset="100%"></stop>
        </linearGradient>
        <path d="M59.6967233,7.04595735 L282.611076,7.04595735 C319.369018,7.04595735 335.299923,23.0419562 335.299923,59.8487968 L335.299923,638.242977 C335.299923,673.69255 318.02043,691.045817 282.611076,691.045817 L59.6967233,691.045817 C22.9387817,691.045817 7.00787621,675.049818 7.00787621,638.242977 L7.00787621,59.8487968 C7.00787621,23.0419562 22.9387817,7.04595735 59.6967233,7.04595735 Z M255.009172,25.9277327 C255.009172,33.7277738 249.281138,43.2648058 236.101259,43.2648058 L104.826326,43.2648058 C91.6464471,43.2648058 85.9184137,33.7277738 85.9184137,26.1986245 C85.9184137,22.4454231 85.9184127,18.8845468 79.7058207,18.8845468 L53.5048499,18.8845468 C31.6081286,18.8845468 18.3901557,32.140627 18.3901557,54.1004764 L18.3901557,643.019211 C18.3901557,664.97906 31.6081286,678.23514 53.5048499,678.23514 L287.152622,678.23514 C309.049344,678.23514 322.267317,664.97906 322.267317,643.019211 L322.267317,54.1004764 C322.267317,32.140627 309.049344,18.8845468 287.152622,18.8845468 L261.221771,18.8845468 C255.009172,18.8845468 255.009172,22.4454243 255.009172,25.9277327 Z" id="path-5"></path>
        <filter x="-0.2%" y="-0.2%" width="100.3%" height="100.4%" filterUnits="objectBoundingBox" id="filter-6">
            <feOffset dx="0" dy="1" in="SourceAlpha" result="shadowOffsetOuter1"></feOffset>
            <feColorMatrix values="0 0 0 0 0   0 0 0 0 0   0 0 0 0 0  0 0 0 0.5 0" type="matrix" in="shadowOffsetOuter1" result="shadowMatrixOuter1"></feColorMatrix>
            <feOffset dx="0" dy="-1" in="SourceAlpha" result="shadowOffsetOuter2"></feOffset>
            <feColorMatrix values="0 0 0 0 0   0 0 0 0 0   0 0 0 0 0  0 0 0 0.5 0" type="matrix" in="shadowOffsetOuter2" result="shadowMatrixOuter2"></feColorMatrix>
            <feMerge>
                <feMergeNode in="shadowMatrixOuter1"></feMergeNode>
                <feMergeNode in="shadowMatrixOuter2"></feMergeNode>
            </feMerge>
        </filter>
        <path d="M302.965506,0.48779684 C319.664152,7.6598445 327.213912,23.1387164 327.213912,48.5002123 L327.213912,626.774575 C327.213912,650.625081 319.406551,666.282396 303.533272,673.972907 C305.217558,669.178887 321.282926,661.279137 321.282926,629.481852 C321.282926,614.09584 321.282926,62.9460731 321.282926,45.7411163 C321.282926,12.1985522 302.469791,4.42791102 302.965506,0.48779684 Z" id="path-7"></path>
        <filter x="-10.3%" y="-0.4%" width="120.6%" height="100.7%" filterUnits="objectBoundingBox" id="filter-8">
            <feGaussianBlur stdDeviation="1.5" in="SourceAlpha" result="shadowBlurInner1"></feGaussianBlur>
            <feOffset dx="2" dy="0" in="shadowBlurInner1" result="shadowOffsetInner1"></feOffset>
            <feComposite in="shadowOffsetInner1" in2="SourceAlpha" operator="arithmetic" k2="-1" k3="1" result="shadowInnerInner1"></feComposite>
            <feColorMatrix values="0 0 0 0 0   0 0 0 0 0   0 0 0 0 0  0 0 0 0.6 0" type="matrix" in="shadowInnerInner1"></feColorMatrix>
        </filter>
        <path d="M0.00962708118,0.541996719 C16.7082722,7.72121467 24.258033,23.2155616 24.258033,48.6024129 L24.258033,627.454909 C24.258033,651.32926 16.4506717,667.002228 0.577392206,674.700427 C2.26167856,669.901615 18.3270471,661.993967 18.3270471,630.164892 C18.3270471,614.763498 18.3270471,63.062716 18.3270471,45.8405585 C18.3270471,12.26446 -0.486088669,4.48605005 0.00962708118,0.541996719 Z" id="path-9"></path>
        <filter x="-10.3%" y="-0.4%" width="120.6%" height="100.7%" filterUnits="objectBoundingBox" id="filter-10">
            <feGaussianBlur stdDeviation="1.5" in="SourceAlpha" result="shadowBlurInner1"></feGaussianBlur>
            <feOffset dx="2" dy="0" in="shadowBlurInner1" result="shadowOffsetInner1"></feOffset>
            <feComposite in="shadowOffsetInner1" in2="SourceAlpha" operator="arithmetic" k2="-1" k3="1" result="shadowInnerInner1"></feComposite>
            <feColorMatrix values="0 0 0 0 0   0 0 0 0 0   0 0 0 0 0  0 0 0 0.6 0" type="matrix" in="shadowInnerInner1"></feColorMatrix>
        </filter>
        <path d="M1.71170214,114.324981 C1.15554177,114.476423 0.488622714,114.864235 0.132513362,115.415097 C0.0591636088,115.528562 0.00114473772,115.887544 0.00114473772,115.99133 C0.00114473772,121.199904 0.00114473772,137.064379 0.00114473772,163.584755 C0.00114473772,163.695544 0.082808302,164.255237 0.132810526,164.390968 C0.420984157,165.173216 0.921690939,165.362454 1.71170214,165.814669 L2.68916351,165.814669 C2.68916351,164.389281 2.70562953,115.718346 2.68916351,114.324981 L1.71170214,114.324981 Z" id="path-11"></path>
        <filter x="-55.7%" y="-2.9%" width="211.3%" height="105.8%" filterUnits="objectBoundingBox" id="filter-12">
            <feOffset dx="1" dy="0" in="SourceAlpha" result="shadowOffsetInner1"></feOffset>
            <feComposite in="shadowOffsetInner1" in2="SourceAlpha" operator="arithmetic" k2="-1" k3="1" result="shadowInnerInner1"></feComposite>
            <feColorMatrix values="0 0 0 0 1   0 0 0 0 1   0 0 0 0 1  0 0 0 0.644842618 0" type="matrix" in="shadowInnerInner1" result="shadowMatrixInner1"></feColorMatrix>
            <feGaussianBlur stdDeviation="0.5" in="SourceAlpha" result="shadowBlurInner2"></feGaussianBlur>
            <feOffset dx="0" dy="2" in="shadowBlurInner2" result="shadowOffsetInner2"></feOffset>
            <feComposite in="shadowOffsetInner2" in2="SourceAlpha" operator="arithmetic" k2="-1" k3="1" result="shadowInnerInner2"></feComposite>
            <feColorMatrix values="0 0 0 0 0.364705882   0 0 0 0 0.368627451   0 0 0 0 0.368627451  0 0 0 1 0" type="matrix" in="shadowInnerInner2" result="shadowMatrixInner2"></feColorMatrix>
            <feGaussianBlur stdDeviation="0.5" in="SourceAlpha" result="shadowBlurInner3"></feGaussianBlur>
            <feOffset dx="0" dy="-2" in="shadowBlurInner3" result="shadowOffsetInner3"></feOffset>
            <feComposite in="shadowOffsetInner3" in2="SourceAlpha" operator="arithmetic" k2="-1" k3="1" result="shadowInnerInner3"></feComposite>
            <feColorMatrix values="0 0 0 0 0.364705882   0 0 0 0 0.368627451   0 0 0 0 0.368627451  0 0 0 1 0" type="matrix" in="shadowInnerInner3" result="shadowMatrixInner3"></feColorMatrix>
            <feMerge>
                <feMergeNode in="shadowMatrixInner1"></feMergeNode>
                <feMergeNode in="shadowMatrixInner2"></feMergeNode>
                <feMergeNode in="shadowMatrixInner3"></feMergeNode>
            </feMerge>
        </filter>
        <path d="M1.71170214,49.8273713 C1.15554177,49.9788132 0.488622714,50.3666255 0.132513362,50.9174879 C0.0591636088,51.030952 0.00114473772,51.3899344 0.00114473772,51.4937201 C0.00114473772,56.7022942 0.00114473772,72.5667693 0.00114473772,99.0871453 C0.00114473772,99.1979346 0.082808302,99.7576279 0.132810526,99.8933589 C0.420984157,100.675606 0.921690939,100.864844 1.71170214,101.31706 L2.68916351,101.31706 C2.68916351,99.8916717 2.70562953,51.2207369 2.68916351,49.8273713 L1.71170214,49.8273713 Z" id="path-13"></path>
        <filter x="-55.7%" y="-2.9%" width="211.3%" height="105.8%" filterUnits="objectBoundingBox" id="filter-14">
            <feOffset dx="1" dy="0" in="SourceAlpha" result="shadowOffsetInner1"></feOffset>
            <feComposite in="shadowOffsetInner1" in2="SourceAlpha" operator="arithmetic" k2="-1" k3="1" result="shadowInnerInner1"></feComposite>
            <feColorMatrix values="0 0 0 0 1   0 0 0 0 1   0 0 0 0 1  0 0 0 0.644842618 0" type="matrix" in="shadowInnerInner1" result="shadowMatrixInner1"></feColorMatrix>
            <feGaussianBlur stdDeviation="0.5" in="SourceAlpha" result="shadowBlurInner2"></feGaussianBlur>
            <feOffset dx="0" dy="2" in="shadowBlurInner2" result="shadowOffsetInner2"></feOffset>
            <feComposite in="shadowOffsetInner2" in2="SourceAlpha" operator="arithmetic" k2="-1" k3="1" result="shadowInnerInner2"></feComposite>
            <feColorMatrix values="0 0 0 0 0.364705882   0 0 0 0 0.368627451   0 0 0 0 0.368627451  0 0 0 1 0" type="matrix" in="shadowInnerInner2" result="shadowMatrixInner2"></feColorMatrix>
            <feGaussianBlur stdDeviation="0.5" in="SourceAlpha" result="shadowBlurInner3"></feGaussianBlur>
            <feOffset dx="0" dy="-2" in="shadowBlurInner3" result="shadowOffsetInner3"></feOffset>
            <feComposite in="shadowOffsetInner3" in2="SourceAlpha" operator="arithmetic" k2="-1" k3="1" result="shadowInnerInner3"></feComposite>
            <feColorMatrix values="0 0 0 0 0.364705882   0 0 0 0 0.368627451   0 0 0 0 0.368627451  0 0 0 1 0" type="matrix" in="shadowInnerInner3" result="shadowMatrixInner3"></feColorMatrix>
            <feMerge>
                <feMergeNode in="shadowMatrixInner1"></feMergeNode>
                <feMergeNode in="shadowMatrixInner2"></feMergeNode>
                <feMergeNode in="shadowMatrixInner3"></feMergeNode>
            </feMerge>
        </filter>
        <path d="M1.71170214,0.505669861 C0.766987372,0.505669861 0.00114473772,1.35498055 0.00114473772,2.40265838 L0.00114473772,25.7085173 C0.00114473772,26.7561951 0.766987372,27.6055058 1.71170214,27.6055058 L2.68916351,27.6055058 C2.68916351,26.180118 2.70562953,1.89903545 2.68916351,0.505669861 L1.71170214,0.505669861 Z" id="path-15"></path>
        <filter x="-55.7%" y="-5.5%" width="211.3%" height="111.1%" filterUnits="objectBoundingBox" id="filter-16">
            <feOffset dx="1" dy="0" in="SourceAlpha" result="shadowOffsetInner1"></feOffset>
            <feComposite in="shadowOffsetInner1" in2="SourceAlpha" operator="arithmetic" k2="-1" k3="1" result="shadowInnerInner1"></feComposite>
            <feColorMatrix values="0 0 0 0 1   0 0 0 0 1   0 0 0 0 1  0 0 0 0.644842618 0" type="matrix" in="shadowInnerInner1" result="shadowMatrixInner1"></feColorMatrix>
            <feGaussianBlur stdDeviation="0.5" in="SourceAlpha" result="shadowBlurInner2"></feGaussianBlur>
            <feOffset dx="0" dy="2" in="shadowBlurInner2" result="shadowOffsetInner2"></feOffset>
            <feComposite in="shadowOffsetInner2" in2="SourceAlpha" operator="arithmetic" k2="-1" k3="1" result="shadowInnerInner2"></feComposite>
            <feColorMatrix values="0 0 0 0 0.364705882   0 0 0 0 0.368627451   0 0 0 0 0.368627451  0 0 0 1 0" type="matrix" in="shadowInnerInner2" result="shadowMatrixInner2"></feColorMatrix>
            <feGaussianBlur stdDeviation="0.5" in="SourceAlpha" result="shadowBlurInner3"></feGaussianBlur>
            <feOffset dx="0" dy="-2" in="shadowBlurInner3" result="shadowOffsetInner3"></feOffset>
            <feComposite in="shadowOffsetInner3" in2="SourceAlpha" operator="arithmetic" k2="-1" k3="1" result="shadowInnerInner3"></feComposite>
            <feColorMatrix values="0 0 0 0 0.364705882   0 0 0 0 0.368627451   0 0 0 0 0.368627451  0 0 0 1 0" type="matrix" in="shadowInnerInner3" result="shadowMatrixInner3"></feColorMatrix>
            <feMerge>
                <feMergeNode in="shadowMatrixInner1"></feMergeNode>
                <feMergeNode in="shadowMatrixInner2"></feMergeNode>
                <feMergeNode in="shadowMatrixInner3"></feMergeNode>
            </feMerge>
        </filter>
        <path d="M348.332561,66.6292696 C347.776401,66.7807115 347.109482,67.1685238 346.753373,67.7193862 C346.680023,67.8328503 346.622004,68.1918327 346.622004,68.2956184 C346.622004,73.5041925 346.622004,119.720484 346.622004,146.24086 C346.622004,146.351649 346.703667,146.911342 346.75367,147.047073 C347.041843,147.829321 347.54255,148.018559 348.332561,148.470774 L349.310023,148.470774 C349.310023,147.045386 349.326489,68.0226352 349.310023,66.6292696 L348.332561,66.6292696 Z" id="path-17"></path>
        <filter x="-55.7%" y="-1.8%" width="211.3%" height="103.7%" filterUnits="objectBoundingBox" id="filter-18">
            <feOffset dx="1" dy="0" in="SourceAlpha" result="shadowOffsetInner1"></feOffset>
            <feComposite in="shadowOffsetInner1" in2="SourceAlpha" operator="arithmetic" k2="-1" k3="1" result="shadowInnerInner1"></feComposite>
            <feColorMatrix values="0 0 0 0 1   0 0 0 0 1   0 0 0 0 1  0 0 0 0.644842618 0" type="matrix" in="shadowInnerInner1" result="shadowMatrixInner1"></feColorMatrix>
            <feGaussianBlur stdDeviation="0.5" in="SourceAlpha" result="shadowBlurInner2"></feGaussianBlur>
            <feOffset dx="0" dy="2" in="shadowBlurInner2" result="shadowOffsetInner2"></feOffset>
            <feComposite in="shadowOffsetInner2" in2="SourceAlpha" operator="arithmetic" k2="-1" k3="1" result="shadowInnerInner2"></feComposite>
            <feColorMatrix values="0 0 0 0 0.364705882   0 0 0 0 0.368627451   0 0 0 0 0.368627451  0 0 0 1 0" type="matrix" in="shadowInnerInner2" result="shadowMatrixInner2"></feColorMatrix>
            <feGaussianBlur stdDeviation="0.5" in="SourceAlpha" result="shadowBlurInner3"></feGaussianBlur>
            <feOffset dx="0" dy="-2" in="shadowBlurInner3" result="shadowOffsetInner3"></feOffset>
            <feComposite in="shadowOffsetInner3" in2="SourceAlpha" operator="arithmetic" k2="-1" k3="1" result="shadowInnerInner3"></feComposite>
            <feColorMatrix values="0 0 0 0 0.364705882   0 0 0 0 0.368627451   0 0 0 0 0.368627451  0 0 0 1 0" type="matrix" in="shadowInnerInner3" result="shadowMatrixInner3"></feColorMatrix>
            <feMerge>
                <feMergeNode in="shadowMatrixInner1"></feMergeNode>
                <feMergeNode in="shadowMatrixInner2"></feMergeNode>
                <feMergeNode in="shadowMatrixInner3"></feMergeNode>
            </feMerge>
        </filter>
        <linearGradient x1="50%" y1="100%" x2="50%" y2="0%" id="linearGradient-19">
            <stop stop-color="#1F1F1F" offset="0%"></stop>
            <stop stop-color="#0F0F0F" offset="100%"></stop>
        </linearGradient>
        <ellipse id="path-20" cx="3.07497366" cy="3.24429978" rx="2.695337" ry="2.7110215"></ellipse>
        <filter x="-36.5%" y="-15.1%" width="173.1%" height="130.2%" filterUnits="objectBoundingBox" id="filter-22">
            <feGaussianBlur stdDeviation="0.426829268" in="SourceGraphic"></feGaussianBlur>
        </filter>
        <filter x="-36.5%" y="-15.1%" width="173.1%" height="130.2%" filterUnits="objectBoundingBox" id="filter-23">
            <feGaussianBlur stdDeviation="0.426829268" in="SourceGraphic"></feGaussianBlur>
        </filter>
        <rect id="path-24" x="0" y="0" width="42.612381" height="5.57100024" rx="2.78550012"></rect>
        <filter x="-4.7%" y="-18.0%" width="109.4%" height="171.8%" filterUnits="objectBoundingBox" id="filter-26">
            <feOffset dx="0" dy="1" in="SourceAlpha" result="shadowOffsetOuter1"></feOffset>
            <feGaussianBlur stdDeviation="0.5" in="shadowOffsetOuter1" result="shadowBlurOuter1"></feGaussianBlur>
            <feColorMatrix values="0 0 0 0 1   0 0 0 0 1   0 0 0 0 1  0 0 0 0.217589447 0" type="matrix" in="shadowBlurOuter1"></feColorMatrix>
        </filter>
    </defs>
    <g id="Page-1" stroke="none" stroke-width="1" fill="none" fill-rule="evenodd">
        <g id="GRID-AND-LAYOUT" transform="translate(-152.000000, -1219.000000)">
            <g id="iPHONE-XS" transform="translate(152.000000, 1221.000000)">
                <g id="body" transform="translate(0.204536, 0.000000)">
                    <g id="shape" transform="translate(3.799142, 0.077428)">
                        <g id="Shape">
                            <use fill="#FFFFFF" fill-rule="evenodd" xlink:href="#path-1"></use>
                            <use fill="black" fill-opacity="1" filter="url(#filter-2)" xlink:href="#path-1"></use>
                            <path stroke="#707070" stroke-width="1.2804878" d="M59.6152108,-0.639621156 L282.156019,-0.639621156 C323.142882,-0.639621156 342.410225,18.8890205 342.410225,59.9377231 L342.410225,639.23929 C342.410225,678.923025 321.802079,699.816634 282.156019,699.816634 L59.6152108,699.816634 C18.628348,699.816634 -0.638995098,680.287992 -0.638995098,639.23929 L-0.638995098,59.9377231 C-0.638995098,18.8890205 18.628348,-0.639621156 59.6152108,-0.639621156 Z M255.649416,25.9277327 C255.649416,35.713846 248.140401,43.9050497 236.101259,43.9050497 L104.826326,43.9050497 C92.8332697,43.9050497 85.2781698,35.7466482 85.2781698,26.1986245 C85.2781698,20.971715 84.4515775,19.5247907 79.7058207,19.5247907 L53.5048499,19.5247907 C31.9621388,19.5247907 19.0303996,32.493812 19.0303996,54.1004764 L19.0303996,643.019211 C19.0303996,664.625875 31.9621388,677.594896 53.5048499,677.594896 L287.152622,677.594896 C308.695334,677.594896 321.627073,664.625875 321.627073,643.019211 L321.627073,54.1004764 C321.627073,32.493812 308.695334,19.5247907 287.152622,19.5247907 L261.221771,19.5247907 C256.56942,19.5247907 255.653385,21.0014734 255.649478,25.702661 C255.649416,25.8150378 255.649416,25.8150378 255.649416,25.9277327 Z"></path>
                        </g>
                        <path d="M59.8816572,3.79397703 L282.426142,3.79397703 C321.115045,3.79397703 338.534328,21.4355178 338.534328,60.1616358 L338.534328,639.014132 C338.534328,676.376605 319.773952,695.38179 282.426142,695.38179 L59.8816572,695.38179 C21.1927549,695.38179 3.77347181,677.74025 3.77347181,639.014132 L3.77347181,60.1616358 C3.77347181,21.4355178 21.1927549,3.79397703 59.8816572,3.79397703 Z M255.009172,25.9277327 C255.009172,33.7277738 249.281138,43.2648058 236.101259,43.2648058 L104.826326,43.2648058 C91.6464471,43.2648058 85.9184137,33.7277738 85.9184137,26.1986245 C85.9184137,22.4454231 85.9184127,18.8845468 79.7058207,18.8845468 L53.5048499,18.8845468 C31.6081286,18.8845468 18.3901557,32.140627 18.3901557,54.1004764 L18.3901557,643.019211 C18.3901557,664.97906 31.6081286,678.23514 53.5048499,678.23514 L287.152622,678.23514 C309.049344,678.23514 322.267317,664.97906 322.267317,643.019211 L322.267317,54.1004764 C322.267317,32.140627 309.049344,18.8845468 287.152622,18.8845468 L261.221771,18.8845468 C255.009172,18.8845468 255.009172,22.4454243 255.009172,25.9277327 Z" id="Shape" fill="url(#linearGradient-3)"></path>
                        <g id="Shape">
                            <use fill="black" fill-opacity="1" filter="url(#filter-6)" xlink:href="#path-5"></use>
                            <use fill="url(#linearGradient-4)" fill-rule="evenodd" xlink:href="#path-5"></use>
                        </g>
                        <path d="M59.6873778,11.9239278 L282.620422,11.9239278 C316.38439,11.9239278 329.909249,25.4936922 329.909249,59.3486407 L329.909249,638.201137 C329.909249,670.699775 315.033663,685.625849 282.620422,685.625849 L59.6873778,685.625849 C25.9234098,685.625849 12.3985502,672.056085 12.3985502,638.201137 L12.3985502,59.3486407 C12.3985502,25.4936922 25.9234098,11.9239278 59.6873778,11.9239278 Z M255.009172,25.9277327 C255.009172,33.7277738 249.281138,43.2648058 236.101259,43.2648058 L104.826326,43.2648058 C91.6464471,43.2648058 85.9184137,33.7277738 85.9184137,26.1986245 C85.9184137,22.4454231 85.9184127,18.8845468 79.7058207,18.8845468 L53.5048499,18.8845468 C31.6081286,18.8845468 18.3901557,32.140627 18.3901557,54.1004764 L18.3901557,643.019211 C18.3901557,664.97906 31.6081286,678.23514 53.5048499,678.23514 L287.152622,678.23514 C309.049344,678.23514 322.267317,664.97906 322.267317,643.019211 L322.267317,54.1004764 C322.267317,32.140627 309.049344,18.8845468 287.152622,18.8845468 L261.221771,18.8845468 C255.009172,18.8845468 255.009172,22.4454243 255.009172,25.9277327 Z" id="Shape" fill="#000000" fill-rule="nonzero"></path>
                    </g>
                    <g id="glass" transform="translate(11.346085, 11.459359)">
                        <g id="glass-right">
                            <use fill-opacity="0.78" fill="#FFFFFF" fill-rule="evenodd" xlink:href="#path-7"></use>
                            <use fill="black" fill-opacity="1" filter="url(#filter-8)" xlink:href="#path-7"></use>
                        </g>
                        <g id="glass-left" transform="translate(12.129017, 337.621212) rotate(-180.000000) translate(-12.129017, -337.621212) ">
                            <use fill-opacity="0.78" fill="#FFFFFF" fill-rule="evenodd" xlink:href="#path-9"></use>
                            <use fill="black" fill-opacity="1" filter="url(#filter-10)" xlink:href="#path-9"></use>
                        </g>
                    </g>
                    <g id="border-marks" transform="translate(2.181939, 65.066706)" fill="#000000" opacity="0.45">
                        <g id="l" transform="translate(0.000000, 0.077428)">
                            <rect id="l2" x="0" y="563.108851" width="5.39067401" height="4.87983871"></rect>
                            <rect id="l1" x="0" y="0.516256545" width="5.39067401" height="4.87983871"></rect>
                        </g>
                        <g id="r" transform="translate(339.073395, 0.077428)">
                            <rect id="r2" x="0.537402328" y="563.108851" width="5.39067401" height="4.87983871"></rect>
                            <rect id="r1" x="0.537402328" y="0.516256545" width="5.39067401" height="4.87983871"></rect>
                        </g>
                    </g>
                    <g id="buttons" transform="translate(0.024005, 92.795194)">
                        <g id="l3">
                            <use fill="#F7F8FA" fill-rule="evenodd" xlink:href="#path-11"></use>
                            <use fill="black" fill-opacity="1" filter="url(#filter-12)" xlink:href="#path-11"></use>
                        </g>
                        <g id="l2">
                            <use fill="#F7F8FA" fill-rule="evenodd" xlink:href="#path-13"></use>
                            <use fill="black" fill-opacity="1" filter="url(#filter-14)" xlink:href="#path-13"></use>
                        </g>
                        <g id="l1">
                            <use fill="#F7F8FA" fill-rule="evenodd" xlink:href="#path-15"></use>
                            <use fill="black" fill-opacity="1" filter="url(#filter-16)" xlink:href="#path-15"></use>
                        </g>
                        <g id="r1" transform="translate(347.969672, 107.550022) scale(-1, 1) translate(-347.969672, -107.550022) ">
                            <use fill="#F7F8FA" fill-rule="evenodd" xlink:href="#path-17"></use>
                            <use fill="black" fill-opacity="1" filter="url(#filter-18)" xlink:href="#path-17"></use>
                        </g>
                    </g>
                    <g id="top" transform="translate(153.119147, 21.215300)">
                        <g id="cam" transform="translate(52.988036, 0.008718)">
                            <ellipse id="Oval-" fill="url(#linearGradient-19)" cx="5.23290834" cy="5.41124874" rx="4.85160661" ry="4.87797047"></ellipse>
                            <g id="camera" transform="translate(2.156270, 2.167987)">
                                <mask id="mask-21" fill="white">
                                    <use xlink:href="#path-20"></use>
                                </mask>
                                <use id="Mask" fill="#070D1D" opacity="0.387534981" xlink:href="#path-20"></use>
                                <path d="M3.506221,-0.805618732 C2.41269395,-0.264793226 1.6194851,1.34389016 1.6194851,3.24429978 C1.6194851,5.1447094 2.41269395,6.75339278 3.506221,7.29421829 C3.25096148,7.42046195 2.97933806,7.48851964 2.6976199,7.48851964 C1.20902638,7.48851964 0.00228289504,5.58831768 0.00228289504,3.24429978 C0.00228289504,0.900281872 1.20902638,-0.999920087 2.6976199,-0.999920087 C2.97933806,-0.999920087 3.25096148,-0.931862397 3.506221,-0.805618732 Z" id="Combined-Shape" fill="#0D569A" filter="url(#filter-22)" mask="url(#mask-21)"></path>
                                <path d="M2.69222396,7.29421829 C3.78575101,6.75339278 4.57895986,5.1447094 4.57895986,3.24429978 C4.57895986,1.34389016 3.78575101,-0.264793226 2.69222396,-0.805618732 C2.94748349,-0.931862397 3.2191069,-0.999920087 3.50082506,-0.999920087 C4.98941859,-0.999920087 6.19616207,0.900281872 6.19616207,3.24429978 C6.19616207,5.58831768 4.98941859,7.48851964 3.50082506,7.48851964 C3.2191069,7.48851964 2.94748349,7.42046195 2.69222396,7.29421829 Z" id="Combined-Shape" fill="#0D569A" filter="url(#filter-23)" mask="url(#mask-21)"></path>
                            </g>
                        </g>
                        <g id="sound" opacity="0.801364272" transform="translate(0.001665, 2.709984)">
                            <mask id="mask-25" fill="white">
                                <use xlink:href="#path-24"></use>
                            </mask>
                            <g id="s">
                                <use fill="black" fill-opacity="1" filter="url(#filter-26)" xlink:href="#path-24"></use>
                                <use fill="#1D1C1C" fill-rule="evenodd" xlink:href="#path-24"></use>
                            </g>
                            <g id="sound-grid" opacity="0.0555366848" mask="url(#mask-25)" stroke="#FFFFFF" stroke-width="0.5">
                                <g transform="translate(-26.953370, -4.335974)">
                                    <path d="M1.19623156,0.0669183505 L16.4468424,15.4004018" id="Stroke-1"></path>
                                    <path d="M4.02043759,0.0669183505 L19.2710485,15.4004018" id="Stroke-3"></path>
                                    <path d="M6.84462479,0.0669183505 L22.0952357,15.4004018" id="Stroke-5"></path>
                                    <path d="M9.66881199,0.0669183505 L24.9194229,15.4004018" id="Stroke-7"></path>
                                    <path d="M12.4929992,0.0669183505 L27.7436101,15.4004018" id="Stroke-9"></path>
                                    <path d="M15.3171864,0.0669183505 L30.5677973,15.4004018" id="Stroke-11"></path>
                                    <path d="M18.1413736,0.0669183505 L33.3919845,15.4004018" id="Stroke-13"></path>
                                    <path d="M20.9655608,0.0669183505 L36.2161717,15.4004018" id="Stroke-15"></path>
                                    <path d="M23.789748,0.0669183505 L39.0403589,15.4004018" id="Stroke-17"></path>
                                    <path d="M26.6139164,0.0669183505 L41.8645273,15.4004018" id="Stroke-19"></path>
                                    <path d="M29.4381036,0.0669183505 L44.6887145,15.4004018" id="Stroke-21"></path>
                                    <path d="M32.2622908,0.0669183505 L47.5129017,15.4004018" id="Stroke-23"></path>
                                    <path d="M35.086478,0.0669183505 L50.3370889,15.4004018" id="Stroke-25"></path>
                                    <path d="M37.9106652,0.0669183505 L53.1612761,15.4004018" id="Stroke-27"></path>
                                    <path d="M40.7348524,0.0669183505 L55.9854633,15.4004018" id="Stroke-29"></path>
                                    <path d="M43.5590396,0.0669183505 L58.8096505,15.4004018" id="Stroke-31"></path>
                                    <path d="M46.3832268,0.0669183505 L61.6338377,15.4004018" id="Stroke-33"></path>
                                    <path d="M49.207414,0.0669183505 L64.4580249,15.4004018" id="Stroke-35"></path>
                                    <path d="M52.0316012,0.0669183505 L67.2822121,15.4004018" id="Stroke-37"></path>
                                    <path d="M54.8557884,0.0669183505 L70.1063993,15.4004018" id="Stroke-39"></path>
                                    <path d="M57.6799756,0.0669183505 L72.9305865,15.4004018" id="Stroke-41"></path>
                                    <path d="M60.5041628,0.0669183505 L75.7547737,15.4004018" id="Stroke-43"></path>
                                    <path d="M63.32835,0.0669183505 L78.5789609,15.4004018" id="Stroke-45"></path>
                                    <path d="M77.449286,0.0669183505 L62.1986751,15.4004018" id="Stroke-47"></path>
                                    <path d="M74.6250988,0.0669183505 L59.3744879,15.4004018" id="Stroke-49"></path>
                                    <path d="M71.8009116,0.0669183505 L56.5503007,15.4004018" id="Stroke-51"></path>
                                    <path d="M68.9767244,0.0669183505 L53.7261135,15.4004018" id="Stroke-53"></path>
                                    <path d="M66.1525372,0.0669183505 L50.9019263,15.4004018" id="Stroke-55"></path>
                                    <path d="M63.32835,0.0669183505 L48.0777391,15.4004018" id="Stroke-57"></path>
                                    <path d="M60.5041628,0.0669183505 L45.2535519,15.4004018" id="Stroke-59"></path>
                                    <path d="M57.6799756,0.0669183505 L42.4293647,15.4004018" id="Stroke-61"></path>
                                    <path d="M54.8557884,0.0669183505 L39.6051775,15.4004018" id="Stroke-63"></path>
                                    <path d="M52.0316012,0.0669183505 L36.7809903,15.4004018" id="Stroke-65"></path>
                                    <path d="M49.207414,0.0669183505 L33.9568031,15.4004018" id="Stroke-67"></path>
                                    <path d="M46.3832268,0.0669183505 L31.1326159,15.4004018" id="Stroke-69"></path>
                                    <path d="M43.5590396,0.0669183505 L28.3084287,15.4004018" id="Stroke-71"></path>
                                    <path d="M40.7348524,0.0669183505 L25.4842415,15.4004018" id="Stroke-73"></path>
                                    <path d="M37.9106652,0.0669183505 L22.6600543,15.4004018" id="Stroke-75"></path>
                                    <path d="M35.086478,0.0669183505 L19.8358671,15.4004018" id="Stroke-77"></path>
                                    <path d="M32.2622908,0.0669183505 L17.0116799,15.4004018" id="Stroke-79"></path>
                                    <path d="M29.4381036,0.0669183505 L14.1874927,15.4004018" id="Stroke-81"></path>
                                    <path d="M26.6139164,0.0669183505 L11.3633055,15.4004018" id="Stroke-83"></path>
                                    <path d="M23.789748,0.0669183505 L8.53913711,15.4004018" id="Stroke-85"></path>
                                    <path d="M20.9655608,0.0669183505 L5.71494991,15.4004018" id="Stroke-87"></path>
                                    <path d="M18.1413736,0.0669183505 L2.89076271,15.4004018" id="Stroke-89"></path>
                                    <path d="M15.3171864,0.0669183505 L0.0665755063,15.4004018" id="Stroke-91"></path>
                                </g>
                            </g>
                        </g>
                    </g>
                </g>
            </g>
        </g>
    </g>
</svg>